<?xml version="1.0" encoding="UTF-8"?>
<svg width="118px" height="37px" viewBox="0 0 118 37" version="1.1" xmlns="http://www.w3.org/2000/svg" xmlns:xlink="http://www.w3.org/1999/xlink">
    <title>icons/app-store</title>
    <g id="3-Productos" stroke="none" stroke-width="1" fill="none" fill-rule="evenodd">
        <g id="UI_Finamex-Trading-personas_dt" transform="translate(-155.000000, -390.000000)">
            <g id="Group" transform="translate(156.000116, 391.000000)">
                <g id="Group-3" fill="#061923" stroke="#7F8EB7">
                    <rect id="Rectangle" x="0" y="0" width="116" height="35" rx="3"></rect>
                </g>
                <path d="M25.5758059,17.6948396 C25.5501819,14.9598971 27.8745846,13.6285563 27.9801863,13.5672669 C26.6652119,11.6960502 24.6242256,11.4414346 23.9075316,11.4210048 C22.1949977,11.2458384 20.5329353,12.4213075 19.661721,12.4213075 C18.7718712,12.4213075 17.425061,11.4387863 15.9784727,11.467161 C14.1145246,11.4962924 12.3697667,12.5480478 11.414304,14.1797821 C9.44164829,17.5094582 10.9130841,22.4016344 12.8034326,25.0945823 C13.7495775,26.4119249 14.8549014,27.8840042 16.3011015,27.8314165 C17.715854,27.7742887 18.2438626,26.9529358 19.9529023,26.9529358 C21.646024,26.9529358 22.1421968,27.8314165 23.6175151,27.7985018 C25.1363163,27.7742887 26.091779,26.4743493 27.0045351,25.1437651 C28.0986,23.6334746 28.537313,22.1462621 28.5543957,22.0694613 C28.5186774,22.0577331 25.604924,20.9745763 25.5758059,17.6948396" id="Fill-4" fill="#FEFEFE"></path>
                <path d="M22.7883474,9.65091556 C23.549301,8.72363045 24.0718742,7.46038892 23.9247307,6.18012258 C22.8236774,6.22779207 21.4465843,6.92240466 20.6537949,7.83039498 C19.9514658,8.63018311 19.3229026,9.94109413 19.4855758,11.172556 C20.7248431,11.26222 21.994005,10.5634458 22.7883474,9.65091556" id="Fill-6" fill="#FEFEFE"></path>
                <path d="M42.6538565,22.917562 L41.6774288,19.9768084 C41.5729918,19.6775499 41.3792592,18.9693175 41.0939016,17.8562727 L41.0597363,17.8562727 C40.945205,18.3356159 40.7615668,19.042335 40.5103744,19.9768084 L39.5498646,22.917562 L42.6538565,22.917562 Z M46.0300057,27.6141419 L44.0589029,27.6141419 L42.9784265,24.3048956 L39.2252946,24.3048956 L38.1952896,27.6141419 L36.2754347,27.6141419 L39.997119,16.3527921 L42.2927918,16.3527921 L46.0300057,27.6141419 Z" id="Fill-8" fill="#FEFEFE"></path>
                <path d="M53.7119488,23.5194083 C53.7119488,22.7287001 53.5286988,22.077217 53.1633634,21.5642025 C52.7630863,21.0303798 52.2253716,20.7621444 51.5525488,20.7621444 C51.094812,20.7621444 50.6786169,20.9112061 50.3093991,21.2047896 C49.9374636,21.5021565 49.6940361,21.8880524 49.5802813,22.3677739 C49.5228216,22.5909882 49.4956447,22.7733429 49.4956447,22.9174864 L49.4956447,24.2719053 C49.4956447,24.8624773 49.6800594,25.360737 50.050442,25.766306 C50.4231539,26.1749016 50.9061265,26.3761728 51.5001362,26.3761728 C52.1978064,26.3761728 52.7409565,26.1158823 53.1280334,25.5918962 C53.5182162,25.0675318 53.7119488,24.3778375 53.7119488,23.5194083 M55.5976384,23.4528223 C55.5976384,24.8344809 55.2152204,25.9255826 54.4488314,26.7280191 C53.7631967,27.4407915 52.9110063,27.7967993 51.8953662,27.7967993 C50.7974189,27.7967993 50.0085119,27.4112818 49.528257,26.64403 L49.4956447,26.64403 L49.4956447,30.9206643 L47.6421791,30.9206643 L47.6421791,22.1665027 C47.6421791,21.2978587 47.6200493,20.4080281 47.5742368,19.4932279 L49.2025222,19.4932279 L49.3054063,20.7803042 L49.3407363,20.7803042 C49.957264,19.8106462 50.895644,19.3263847 52.1519939,19.3263847 C53.1334688,19.3263847 53.9553763,19.7054706 54.6122812,20.4628859 C55.269186,21.2218145 55.5976384,22.2179555 55.5976384,23.4528223" id="Fill-10" fill="#FEFEFE"></path>
                <path d="M63.2962759,23.5194083 C63.2962759,22.7287001 63.1130258,22.077217 62.7465257,21.5642025 C62.3462486,21.0303798 61.8096987,20.7621444 61.1357112,20.7621444 C60.6775861,20.7621444 60.262944,20.9112061 59.8921732,21.2047896 C59.5210142,21.5021565 59.2783632,21.8880524 59.1649967,22.3677739 C59.1059839,22.5909882 59.078807,22.7733429 59.078807,22.9174864 L59.078807,24.2719053 C59.078807,24.8624773 59.2628336,25.360737 59.6343808,25.766306 C60.0063163,26.1749016 60.4885124,26.3761728 61.0848515,26.3761728 C61.7809688,26.3761728 62.3252836,26.1158823 62.7127487,25.5918962 C63.1002139,25.0675318 63.2962759,24.3778375 63.2962759,23.5194083 M65.1808008,23.4528223 C65.1808008,24.8344809 64.798771,25.9255826 64.0319938,26.7280191 C63.3459708,27.4407915 62.4953334,27.7967993 61.4773638,27.7967993 C60.3805812,27.7967993 59.592839,27.4112818 59.1129723,26.64403 L59.078807,26.64403 L59.078807,30.9206643 L57.2268944,30.9206643 L57.2268944,22.1665027 C57.2268944,21.2978587 57.2032117,20.4080281 57.1585639,19.4932279 L58.7868493,19.4932279 L58.8901216,20.7803042 L58.9258398,20.7803042 C59.5404263,19.8106462 60.4772534,19.3263847 61.7359328,19.3263847 C62.7181841,19.3263847 63.5385387,19.7054706 64.1966082,20.4628859 C64.8535131,21.2218145 65.1808008,22.2179555 65.1808008,23.4528223" id="Fill-12" fill="#FEFEFE"></path>
                <path d="M75.8974346,24.4552436 C75.8974346,25.4131734 75.5569467,26.1921535 74.8701472,26.7944537 C74.1173467,27.4523683 73.0690943,27.7796232 71.7234488,27.7796232 C70.4806873,27.7796232 69.4825181,27.546194 68.7269999,27.0789573 L69.1567834,25.5750984 C69.9701496,26.0544416 70.8615524,26.292789 71.8337094,26.292789 C72.5313796,26.292789 73.0745297,26.139944 73.463936,25.8342539 C73.8517894,25.5266722 74.045522,25.1161849 74.045522,24.6035487 C74.045522,24.1469053 73.8855664,23.7606311 73.5664318,23.449266 C73.2472972,23.1360094 72.7130767,22.8462091 71.9699822,22.578352 C69.9468551,21.8413665 68.9366503,20.7650197 68.9366503,19.3485548 C68.9366503,18.4224047 69.2899502,17.6634761 69.9996559,17.0732824 C70.7074204,16.4815754 71.6508476,16.1845869 72.8287727,16.1845869 C73.8805193,16.1845869 74.7552277,16.363915 75.451345,16.7199228 L74.9889492,18.1901105 C74.3370915,17.8458308 73.6005971,17.672556 72.7763601,17.672556 C72.1245024,17.672556 71.6170706,17.827671 71.251347,18.1405493 C70.9442478,18.4186214 70.7893394,18.7587394 70.7893394,19.1593901 C70.7893394,19.6046837 70.9648246,19.9731765 71.3196775,20.261085 C71.6271649,20.5289422 72.1873975,20.8187424 72.9999873,21.1312424 C73.9946623,21.5212999 74.7245566,21.9775651 75.194329,22.5004162 C75.6629366,23.0247806 75.8974346,23.6762636 75.8974346,24.4552436" id="Fill-14" fill="#FEFEFE"></path>
                <path d="M82.0179475,20.8463605 L79.9777377,20.8463605 L79.9777377,24.7896867 C79.9777377,25.7918811 80.3376377,26.292789 81.0586024,26.292789 C81.3882195,26.292789 81.6630946,26.2647927 81.8805099,26.2103133 L81.9309813,27.5798653 C81.5675872,27.7134156 81.0865558,27.7796232 80.4917696,27.7796232 C79.7603224,27.7796232 79.1884424,27.5632188 78.7772946,27.1296535 C78.3665349,26.6949531 78.1599904,25.9640209 78.1599904,24.9398835 L78.1599904,20.8463605 L76.9428528,20.8463605 L76.9428528,19.4923199 L78.1599904,19.4923199 L78.1599904,18.0066208 L79.9777377,17.4709065 L79.9777377,19.4923199 L82.0179475,19.4923199 L82.0179475,20.8463605 Z" id="Fill-16" fill="#FEFEFE"></path>
                <path d="M89.3042723,23.5449077 C89.3042723,22.796194 89.1392696,22.1549258 88.8069348,21.6180766 C88.4198579,20.9699985 87.8646724,20.6461486 87.1448724,20.6461486 C86.4006132,20.6461486 85.8349451,20.9699985 85.4474799,21.6180766 C85.1151451,22.1549258 84.9516954,22.8079222 84.9516954,23.579714 C84.9516954,24.327671 85.1151451,24.9696958 85.4474799,25.5054101 C85.8469806,26.1531099 86.406825,26.4765814 87.1289545,26.4765814 C87.8359425,26.4765814 88.3907398,26.1478133 88.7902404,25.4887636 C89.1330578,24.9409428 89.3042723,24.2936214 89.3042723,23.5449077 M91.2252919,23.486645 C91.2252919,24.7347533 90.8603448,25.7588907 90.1285093,26.5609488 C89.3613439,27.3857067 88.3437625,27.7965723 87.0769301,27.7965723 C85.8520277,27.7965723 84.8798707,27.4012182 84.1530823,26.61051 C83.4270705,25.8198018 83.064841,24.8229041 83.064841,23.6213302 C83.064841,22.3611153 83.4379412,21.3309246 84.1872476,20.5303798 C84.9346127,19.7268084 85.944041,19.326536 87.2128147,19.326536 C88.4353876,19.326536 89.4195801,19.7218901 90.1622863,20.5125984 C90.871992,21.2828768 91.2252919,22.2722079 91.2252919,23.486645" id="Fill-18" fill="#FEFEFE"></path>
                <path d="M97.2423772,21.0798653 C97.0591272,21.0480857 96.8653946,21.0303042 96.6600148,21.0303042 C96.0097101,21.0303042 95.5046077,21.2712999 95.1497548,21.7495082 C94.8422675,22.173237 94.6881355,22.707438 94.6881355,23.3524894 L94.6881355,27.613234 L92.8373877,27.613234 L92.8533056,22.05028 C92.8533056,21.1146716 92.8296228,20.2622957 92.7857515,19.4935306 L94.3973426,19.4935306 L94.4656731,21.0480857 L94.515368,21.0480857 C94.7106536,20.5138847 95.0200821,20.0841026 95.4417125,19.761766 C95.8528604,19.4719658 96.3001148,19.326309 96.7807579,19.326309 C96.9504195,19.326309 97.1061044,19.3380372 97.2423772,19.358467 L97.2423772,21.0798653 Z" id="Fill-20" fill="#FEFEFE"></path>
                <path d="M103.7568,22.7006659 C103.77,22.1675999 103.649645,21.7045248 103.398065,21.3144673 C103.077377,20.813181 102.583922,20.5623487 101.921582,20.5623487 C101.317478,20.5623487 100.825576,20.8082627 100.448593,21.2978208 C100.139941,21.6882567 99.956691,22.155115 99.9015607,22.7006659 L103.7568,22.7006659 Z M105.522135,23.1686592 C105.522135,23.4928874 105.499617,23.7645278 105.455357,23.9873638 L99.9015607,23.9873638 C99.9225257,24.7894219 100.191965,25.403072 100.706774,25.8268008 C101.173828,26.2055085 101.78065,26.3924031 102.524133,26.3924031 C103.344487,26.3924031 104.09457,26.2649062 104.769723,26.0087772 L105.060127,27.2625605 C104.272385,27.596247 103.340993,27.7649818 102.264787,27.7649818 C100.974661,27.7649818 99.9590204,27.3934625 99.2221378,26.6523154 C98.4868082,25.9126816 98.1168139,24.9169189 98.1168139,23.6703238 C98.1168139,22.4456719 98.459243,21.4256961 99.1464307,20.6119098 C99.865066,19.7432657 100.837223,19.3097004 102.059408,19.3097004 C103.259463,19.3097004 104.170277,19.7432657 104.788358,20.6119098 C105.277543,21.3031174 105.522135,22.155115 105.522135,23.1686592 L105.522135,23.1686592 Z" id="Fill-22" fill="#FEFEFE"></path>
                <path d="M39.3614121,11.6419492 C40.3836523,11.6419492 40.9706737,11.0759685 40.9706737,9.85888317 C40.9706737,8.64179782 40.3836523,8.11554177 39.3614121,8.11554177 L38.9669586,8.11554177 L38.9669586,11.6419492 L39.3614121,11.6419492 Z M38.0658498,7.40390436 L39.4204249,7.40390436 C40.9768856,7.40390436 41.8962418,8.22147397 41.8962418,9.85888317 C41.8962418,11.4966707 40.9768856,12.3535866 39.4670139,12.3535866 L38.0658498,12.3535866 L38.0658498,7.40390436 Z" id="Fill-24" fill="#FEFEFE"></path>
                <path d="M42.8411831,12.3535866 L43.73608,12.3535866 L43.73608,8.63612288 L42.8411831,8.63612288 L42.8411831,12.3535866 Z M42.7386873,7.49167676 C42.7386873,7.19809322 42.9751264,6.99833535 43.2919316,6.99833535 C43.6087368,6.99833535 43.8447877,7.19809322 43.8447877,7.49167676 C43.8447877,7.77920702 43.6087368,7.98501816 43.2919316,7.98501816 C42.9751264,7.98501816 42.7386873,7.77920702 42.7386873,7.49167676 L42.7386873,7.49167676 Z" id="Fill-26" fill="#FEFEFE"></path>
                <path d="M44.4968783,11.9267933 L44.9130734,11.3725409 C45.2516201,11.6301831 45.579296,11.7875681 45.9659847,11.7875681 C46.3821797,11.7875681 46.5782417,11.5968901 46.5782417,11.3422745 C46.5782417,11.0305312 46.1651526,10.891306 45.7578872,10.7399743 C45.2578319,10.5568629 44.6863403,10.2768992 44.6863403,9.65606084 C44.6863403,9.01138771 45.2205607,8.54528602 46.0746923,8.54528602 C46.6061951,8.54528602 47.031708,8.75563711 47.3423013,8.99020127 L46.9323181,9.52591556 C46.6652079,9.33523759 46.3965446,9.20206568 46.0968221,9.20206568 C45.7132394,9.20206568 45.531154,9.38101544 45.531154,9.61406628 C45.531154,9.90727149 45.9162897,10.0196353 46.3297671,10.1679404 C46.845352,10.3555917 47.4230555,10.5977225 47.4230555,11.2908217 C47.4230555,11.9298199 46.9043647,12.4443478 45.9415255,12.4443478 C45.4193405,12.4443478 44.8695903,12.2264301 44.4968783,11.9267933" id="Fill-28" fill="#FEFEFE"></path>
                <path d="M50.7792492,10.4463529 C50.7792492,9.70444915 50.5303863,9.26558717 49.9495768,9.26558717 C49.6731487,9.26558717 49.4122504,9.40178571 49.1171867,9.68326271 L49.1171867,11.4152542 C49.3905088,11.6418735 49.660725,11.7239709 49.8812463,11.7239709 C50.3910075,11.7239709 50.7792492,11.2881356 50.7792492,10.4463529 L50.7792492,10.4463529 Z M48.2222898,8.63604722 L48.9556782,8.63604722 L49.0240087,9.03253632 L49.0488562,9.03253632 C49.3703203,8.76316586 49.7791387,8.54524818 50.1984397,8.54524818 C51.1519611,8.54524818 51.6986053,9.28980024 51.6986053,10.437273 C51.6986053,11.7088378 50.9190161,12.4443099 50.0710964,12.4443099 C49.7325497,12.4443099 49.3998266,12.2960048 49.0892333,12.0357143 L49.1171867,12.6531477 L49.1171867,13.8248335 L48.2222898,13.8248335 L48.2222898,8.63604722 Z" id="Fill-29" fill="#FEFEFE"></path>
                <path d="M55.059419,10.4976922 C55.059419,9.75314013 54.7239783,9.25677209 54.1645221,9.25677209 C53.6054541,9.25677209 53.2700134,9.75314013 53.2700134,10.4976922 C53.2700134,11.2426226 53.6054541,11.7329373 54.1645221,11.7329373 C54.7239783,11.7329373 55.059419,11.2426226 55.059419,10.4976922 M52.3502689,10.4976922 C52.3502689,9.25979873 53.2141066,8.54513469 54.1645221,8.54513469 C55.1153258,8.54513469 55.9787752,9.25979873 55.9787752,10.4976922 C55.9787752,11.7299107 55.1153258,12.4445748 54.1645221,12.4445748 C53.2141066,12.4445748 52.3502689,11.7299107 52.3502689,10.4976922" id="Fill-30" fill="#FEFEFE"></path>
                <path d="M56.8645097,8.63600938 L57.5978981,8.63600938 L57.6658404,9.13843069 L57.6910761,9.13843069 C58.0327288,8.81458081 58.4213586,8.54521035 58.9431554,8.54521035 C59.7600158,8.54521035 60.1171981,9.0843296 60.1171981,10.0225863 L60.1171981,12.3534731 L59.2223011,12.3534731 L59.2223011,10.1345717 C59.2223011,9.52319159 59.042157,9.29278904 58.6294562,9.29278904 C58.2940154,9.29278904 58.0731059,9.45320067 57.7594067,9.75624243 L57.7594067,12.3534731 L56.8645097,12.3534731 L56.8645097,8.63600938 Z" id="Fill-31" fill="#FEFEFE"></path>
                <path d="M61.2127772,12.3535866 L62.1076741,12.3535866 L62.1076741,8.63612288 L61.2127772,8.63612288 L61.2127772,12.3535866 Z M61.1106696,7.49167676 C61.1106696,7.19809322 61.3467205,6.99833535 61.6635257,6.99833535 C61.9803309,6.99833535 62.2163818,7.19809322 62.2163818,7.49167676 C62.2163818,7.77920702 61.9803309,7.98501816 61.6635257,7.98501816 C61.3467205,7.98501816 61.1106696,7.77920702 61.1106696,7.49167676 L61.1106696,7.49167676 Z" id="Fill-32" fill="#FEFEFE"></path>
                <path d="M65.804278,10.4463529 C65.804278,9.70444915 65.5554151,9.26558717 64.9746057,9.26558717 C64.6981776,9.26558717 64.4310674,9.40178571 64.1422156,9.68326271 L64.1422156,11.4152542 C64.4093258,11.6418735 64.6857539,11.7239709 64.9062751,11.7239709 C65.4160364,11.7239709 65.804278,11.2881356 65.804278,10.4463529 M64.0552495,11.9630751 L64.030402,11.9630751 L63.9523654,12.3535109 L63.2473186,12.3535109 L63.2473186,7.00733959 L64.1422156,7.00733959 L64.1422156,8.3905115 L64.1173681,9.00832324 C64.4361145,8.73592615 64.8270738,8.54524818 65.2184214,8.54524818 C66.1723311,8.54524818 66.7236342,9.28980024 66.7236342,10.4327331 C66.7236342,11.7088378 65.944045,12.4443099 65.0961253,12.4443099 C64.7478725,12.4443099 64.3751606,12.2717918 64.0552495,11.9630751" id="Fill-33" fill="#FEFEFE"></path>
                <path d="M67.5722139,11.3969809 L67.5722139,7.00722609 L68.4671109,7.00722609 L68.4671109,11.4423804 C68.4671109,11.6568932 68.5665008,11.7329373 68.6596788,11.7329373 C68.7000559,11.7329373 68.7311152,11.7329373 68.7994458,11.7178042 L68.9112593,12.3685306 C68.8025517,12.4112818 68.6534669,12.4445748 68.4391575,12.4445748 C67.8055472,12.4445748 67.5722139,12.0446807 67.5722139,11.3969809" id="Fill-34" fill="#FEFEFE"></path>
                <path d="M71.9846966,10.1404358 C71.9846966,9.56840194 71.7237982,9.21996065 71.2020015,9.21996065 C70.757853,9.21996065 70.3661172,9.54418886 70.2888571,10.1404358 L71.9846966,10.1404358 Z M69.4250195,10.4975787 C69.4250195,9.28995157 70.285363,8.54502119 71.1833659,8.54502119 C72.2149239,8.54502119 72.7584622,9.27179177 72.7584622,10.3099274 C72.7584622,10.4767706 72.7394383,10.6432355 72.719638,10.7336562 L70.2977867,10.7336562 C70.3727173,11.3938408 70.807548,11.7695218 71.4225227,11.7695218 C71.7490339,11.7695218 72.0281796,11.6692645 72.3081019,11.499773 L72.6124833,12.0415406 C72.2490891,12.2806447 71.7890228,12.4444613 71.3044972,12.4444613 C70.2511977,12.4444613 69.4250195,11.7241223 69.4250195,10.4975787 L69.4250195,10.4975787 Z" id="Fill-35" fill="#FEFEFE"></path>
                <path d="M77.474278,10.1404358 C77.474278,9.56840194 77.2133796,9.21996065 76.6915829,9.21996065 C76.2474344,9.21996065 75.8556986,9.54418886 75.7784385,10.1404358 L77.474278,10.1404358 Z M74.9146009,10.4975787 C74.9146009,9.28995157 75.7749444,8.54502119 76.6729473,8.54502119 C77.7045053,8.54502119 78.2480436,9.27179177 78.2480436,10.3099274 C78.2480436,10.4767706 78.229408,10.6432355 78.2092194,10.7336562 L75.7873681,10.7336562 C75.8622987,11.3938408 76.2971294,11.7695218 76.9121041,11.7695218 C77.2386153,11.7695218 77.5177611,11.6692645 77.7976833,11.499773 L78.1020647,12.0415406 C77.7386705,12.2806447 77.2786042,12.4444613 76.7940786,12.4444613 C75.7407791,12.4444613 74.9146009,11.7241223 74.9146009,10.4975787 L74.9146009,10.4975787 Z" id="Fill-36" fill="#FEFEFE"></path>
                <path d="M79.1027187,8.63600938 L79.8361071,8.63600938 L79.9040494,9.13843069 L79.9292851,9.13843069 C80.2709378,8.81458081 80.6595676,8.54521035 81.1813644,8.54521035 C81.9982248,8.54521035 82.3554071,9.0843296 82.3554071,10.0225863 L82.3554071,12.3534731 L81.4605101,12.3534731 L81.4605101,10.1345717 C81.4605101,9.52319159 81.280366,9.29278904 80.8676652,9.29278904 C80.5322244,9.29278904 80.3113149,9.45320067 79.9976157,9.75624243 L79.9976157,12.3534731 L79.1027187,12.3534731 L79.1027187,8.63600938 Z" id="Fill-37" fill="#FEFEFE"></path>
            </g>
        </g>
    </g>
</svg>