<?xml version="1.0" encoding="UTF-8"?>
<svg width="118px" height="37px" viewBox="0 0 118 37" version="1.1" xmlns="http://www.w3.org/2000/svg" xmlns:xlink="http://www.w3.org/1999/xlink">
    <title>icons/google-play</title>
    <g id="3-Productos" stroke="none" stroke-width="1" fill="none" fill-rule="evenodd">
        <g id="UI_Finamex-Trading-personas_dt" transform="translate(-281.000000, -390.000000)">
            <g id="icons/google-play" transform="translate(282.000116, 390.999849)">
                <g id="Group-3">
                    <path d="M112.70344,0 L3.29655971,0 C1.47609469,0 0,1.43842354 0,3.21242879 L0,31.7879495 C0,33.5623331 1.47609469,35.0007567 3.29655971,35.0007567 L112.70344,35.0007567 C114.523905,35.0007567 116,33.5623331 116,31.7879495 L116,3.21242879 C116,1.43842354 114.523905,0 112.70344,0" id="Fill-1"></path>
                </g>
                <rect id="Rectangle" stroke="#7F8EB7" fill="#061923" x="0" y="0.000151333355" width="116" height="35.0003783" rx="3"></rect>
                <path d="M92.9274597,25.9489034 L94.5448744,25.9489034 L94.5448744,15.3869702 L92.9274597,15.3869702 L92.9274597,25.9489034 Z M107.498945,19.1914907 L105.644314,23.7708381 L105.588408,23.7708381 L103.664282,19.1914907 L101.921465,19.1914907 L104.807654,25.5913783 L103.162286,29.1514955 L104.849584,29.1514955 L109.297668,19.1914907 L107.498945,19.1914907 Z M98.3236302,24.7492082 C97.7936804,24.7492082 97.0548565,24.4908065 97.0548565,23.8525581 C97.0548565,23.0368713 97.9749892,22.7243679 98.7701081,22.7243679 C99.4809785,22.7243679 99.8156428,22.8741879 100.247756,23.0777313 C100.122354,24.0561014 99.2577396,24.7492082 98.3236302,24.7492082 L98.3236302,24.7492082 Z M98.5189157,18.9607074 C97.3475907,18.9607074 96.1347239,19.4631341 95.6323392,20.5773259 L97.0688332,21.161851 C97.3755441,20.5773259 97.9470358,20.3870242 98.5464809,20.3870242 C99.3835299,20.3870242 100.233779,20.8762093 100.247756,21.7459978 L100.247756,21.8545795 C99.9550215,21.6918961 99.3276231,21.4471144 98.5608458,21.4471144 C97.0129264,21.4471144 95.4374419,22.2760428 95.4374419,23.8249397 C95.4374419,25.2383933 96.7062155,26.1486634 98.1283447,26.1486634 C99.2161977,26.1486634 99.8156428,25.6730983 100.192237,25.1158133 L100.247756,25.1158133 L100.247756,25.9315 L101.809652,25.9315 L101.809652,21.8821978 C101.809652,20.0064209 100.373158,18.9607074 98.5189157,18.9607074 L98.5189157,18.9607074 Z M88.5209172,20.4774459 L86.219809,20.4774459 L86.219809,16.8567954 L88.5209172,16.8567954 C89.7302899,16.8567954 90.4174776,17.8325172 90.4174776,18.6667423 C90.4174776,19.4858341 89.7302899,20.4774459 88.5209172,20.4774459 L88.5209172,20.4774459 Z M88.4793753,15.3869702 L84.6023944,15.3869702 L84.6023944,25.9489034 L86.219809,25.9489034 L86.219809,21.9468928 L88.4793753,21.9468928 C90.2722752,21.9468928 92.0348922,20.6825026 92.0348922,18.6667423 C92.0348922,16.6517387 90.2722752,15.3869702 88.4793753,15.3869702 L88.4793753,15.3869702 Z M67.3403949,24.7510999 C66.2234237,24.7510999 65.2873731,23.8389381 65.2873731,22.5870329 C65.2873731,21.3211294 66.2234237,20.3957259 67.3403949,20.3957259 C68.4441658,20.3957259 69.3103329,21.3211294 69.3103329,22.5870329 C69.3103329,23.8389381 68.4441658,24.7510999 67.3403949,24.7510999 L67.3403949,24.7510999 Z M69.1985193,19.7832042 L69.1426125,19.7832042 C68.7796066,19.3609841 68.0811599,18.9800024 67.2010161,18.9800024 C65.3572566,18.9800024 63.6672408,20.5587876 63.6672408,22.5870329 C63.6672408,24.6012798 65.3572566,26.1668234 67.2010161,26.1668234 C68.0811599,26.1668234 68.7796066,25.7854633 69.1426125,25.35038 L69.1985193,25.35038 L69.1985193,25.8671834 C69.1985193,27.2420469 68.4441658,27.9771487 67.2285813,27.9771487 C66.2374004,27.9771487 65.6228139,27.2829069 65.3712333,26.6976251 L63.9603632,27.2692869 C64.3652992,28.2219304 65.4411168,29.3924939 67.2285813,29.3924939 C69.1286358,29.3924939 70.7347915,28.3036504 70.7347915,25.6496417 L70.7347915,19.1975441 L69.1985193,19.1975441 L69.1985193,19.7832042 Z M71.8525391,25.9489034 L73.4726715,25.9489034 L73.4726715,15.3865919 L71.8525391,15.3865919 L71.8525391,25.9489034 Z M75.861134,22.4644529 C75.8188157,21.0763477 76.9645167,20.3684859 77.7887537,20.3684859 C78.4312936,20.3684859 78.9756084,20.6813676 79.1573055,21.1304493 L75.861134,22.4644529 Z M80.8896396,21.2666494 C80.5821523,20.4638259 79.6464899,18.9800024 77.7328469,18.9800024 C75.8327924,18.9800024 74.2545901,20.4362076 74.2545901,22.5734129 C74.2545901,24.5876598 75.8188157,26.1668234 77.914544,26.1668234 C79.6041716,26.1668234 80.5821523,25.1596999 80.9870883,24.5744182 L79.7303501,23.7575964 C79.3110492,24.3564981 78.7383927,24.7510999 77.914544,24.7510999 C77.090307,24.7510999 76.5036739,24.3837381 76.126303,23.6622564 L81.05736,21.6752494 L80.8896396,21.2666494 Z M41.6069629,20.0824659 L41.6069629,21.6067711 L45.3503887,21.6067711 C45.2385752,22.4644529 44.9454527,23.0905946 44.4985866,23.5260564 C43.9534953,24.0572364 43.1016932,24.6421399 41.6069629,24.6421399 C39.3023606,24.6421399 37.5005312,22.8318146 37.5005312,20.5860276 C37.5005312,18.3402406 39.3023606,16.5299154 41.6069629,16.5299154 C42.8501126,16.5299154 43.7578216,17.0062371 44.4287031,17.6187588 L45.5320858,16.5435354 C44.5960352,15.6722336 43.3528855,15.0056101 41.6069629,15.0056101 C38.4501702,15.0056101 35.7961504,17.5097988 35.7961504,20.5860276 C35.7961504,23.6622564 38.4501702,26.1668234 41.6069629,26.1668234 C43.3113437,26.1668234 44.5960352,25.6220233 45.6015811,24.6012798 C46.6354686,23.5941564 46.9569326,22.1788112 46.9569326,21.0351093 C46.9569326,20.6813676 46.928591,20.3544876 46.8730724,20.0824659 L41.6069629,20.0824659 Z M51.2120609,24.7510999 C50.0950897,24.7510999 49.1310858,23.8529364 49.1310858,22.5734129 C49.1310858,21.2802694 50.0950897,20.3957259 51.2120609,20.3957259 C52.3294203,20.3957259 53.2934243,21.2802694 53.2934243,22.5734129 C53.2934243,23.8529364 52.3294203,24.7510999 51.2120609,24.7510999 L51.2120609,24.7510999 Z M51.2120609,18.9800024 C49.1730159,18.9800024 47.5105652,20.4906876 47.5105652,22.5734129 C47.5105652,24.6421399 49.1730159,26.1668234 51.2120609,26.1668234 C53.2514942,26.1668234 54.9139449,24.6421399 54.9139449,22.5734129 C54.9139449,20.4906876 53.2514942,18.9800024 51.2120609,18.9800024 L51.2120609,18.9800024 Z M59.2870987,24.7510999 C58.1697392,24.7510999 57.2057353,23.8529364 57.2057353,22.5734129 C57.2057353,21.2802694 58.1697392,20.3957259 59.2870987,20.3957259 C60.4044581,20.3957259 61.3684621,21.2802694 61.3684621,22.5734129 C61.3684621,23.8529364 60.4044581,24.7510999 59.2870987,24.7510999 L59.2870987,24.7510999 Z M59.2870987,18.9800024 C57.2476654,18.9800024 55.5856029,20.4906876 55.5856029,22.5734129 C55.5856029,24.6421399 57.2476654,26.1668234 59.2870987,26.1668234 C61.3261437,26.1668234 62.9885944,24.6421399 62.9885944,22.5734129 C62.9885944,20.4906876 61.3261437,18.9800024 59.2870987,18.9800024 L59.2870987,18.9800024 Z" id="Fill-4" fill="#FEFEFE"></path>
                <path d="M9.23968499,7.00620467 C9.00169287,7.26649804 8.85959643,7.65845143 8.85959643,8.16503983 L8.85959643,26.8346575 C8.85959643,27.2621742 8.9628687,27.6045659 9.13680096,27.8591843 L19.7645274,17.3819978 L9.23968499,7.00620467 Z" id="Fill-6" fill="#FEFEFE"></path>
                <path d="M20.1438007,17.0083936 L23.425219,13.7732648 L11.0604994,6.92732216 C10.5453028,6.64243711 10.073201,6.58341711 9.69815953,6.71053712 L20.1438007,17.0083936 Z" id="Fill-7" fill="#FEFEFE"></path>
                <path d="M20.1438007,17.7554507 L9.53238036,28.2159905 C9.92877506,28.4286139 10.4661015,28.4017522 11.0604994,28.0729805 L23.5785744,21.1415345 L20.1438007,17.7554507 Z" id="Fill-8" fill="#FEFEFE"></path>
                <path d="M27.9541353,16.2812747 L23.9105987,14.0422977 L20.5224139,17.3818465 L24.0635659,20.873107 L27.9541353,18.7184983 C29.1646727,18.0484699 29.1646727,16.9513031 27.9541353,16.2812747" id="Fill-9" fill="#FEFEFE"></path>
                <path d="M39.3026323,11.0784717 C40.3248726,11.0784717 40.9118939,10.512485 40.9118939,9.29538649 C40.9118939,8.07828799 40.3248726,7.55202624 39.3026323,7.55202624 L38.9081788,7.55202624 L38.9081788,11.0784717 L39.3026323,11.0784717 Z M38.00707,6.84038114 L39.3616451,6.84038114 C40.9181058,6.84038114 41.837462,7.65795959 41.837462,9.29538649 C41.837462,10.9331917 40.9181058,11.7901168 39.4082341,11.7901168 L38.00707,11.7901168 L38.00707,6.84038114 Z" id="Fill-10" fill="#FEFEFE"></path>
                <path d="M42.7825586,11.7901547 L43.6774555,11.7901547 L43.6774555,8.07265082 L42.7825586,8.07265082 L42.7825586,11.7901547 Z M42.6800628,6.92819232 C42.6800628,6.63460561 42.9161137,6.43446725 43.2333071,6.43446725 C43.549724,6.43446725 43.7861632,6.63460561 43.7861632,6.92819232 C43.7861632,7.2157257 43.549724,7.42153906 43.2333071,7.42153906 C42.9161137,7.42153906 42.6800628,7.2157257 42.6800628,6.92819232 L42.6800628,6.92819232 Z" id="Fill-11" fill="#FEFEFE"></path>
                <path d="M44.4380986,11.363319 L44.8542936,10.8090605 C45.1928403,11.0667056 45.5205162,11.2240923 45.9072049,11.2240923 C46.3233999,11.2240923 46.519462,11.0334122 46.519462,10.7787939 C46.519462,10.4670472 46.1063729,10.3278205 45.6991074,10.1764871 C45.1990522,9.99337376 44.6275605,9.71340705 44.6275605,9.09256196 C44.6275605,8.44788187 45.161781,7.98177514 46.0159126,7.98177514 C46.5474153,7.98177514 46.9729282,8.1921285 47.2835215,8.4266952 L46.8735383,8.96241528 C46.6064281,8.77173525 46.3377649,8.6385619 46.0380423,8.6385619 C45.6544596,8.6385619 45.4723743,8.81713526 45.4723743,9.05056696 C45.4723743,9.34377533 45.85751,9.45614035 46.2709873,9.60444704 C46.7865722,9.7921004 47.3642757,10.0342338 47.3642757,10.7273405 C47.3642757,11.3663456 46.8455849,11.880879 45.8827457,11.880879 C45.3605607,11.880879 44.8108105,11.662959 44.4380986,11.363319" id="Fill-12" fill="#FEFEFE"></path>
                <path d="M50.7205082,9.88286258 C50.7205082,9.1409508 50.4716453,8.70208408 49.8908358,8.70208408 C49.6144078,8.70208408 49.3535094,8.83828409 49.0584458,9.11976414 L49.0584458,10.8517744 C49.3317679,11.0783961 49.601984,11.1604944 49.8225053,11.1604944 C50.3322666,11.1604944 50.7205082,10.7246544 50.7205082,9.88286258 L50.7205082,9.88286258 Z M48.1635488,8.07253732 L48.8969372,8.07253732 L48.9652678,8.46903071 L48.9901152,8.46903071 C49.3115793,8.19965734 49.7203977,7.98173731 50.1396987,7.98173731 C51.0932202,7.98173731 51.6398644,8.72629741 51.6398644,9.87378258 C51.6398644,11.1453611 50.8602752,11.8808412 50.0123555,11.8808412 C49.6738088,11.8808412 49.3410857,11.7325345 49.0304924,11.4722411 L49.0584458,12.0896812 L49.0584458,13.2613797 L48.1635488,13.2613797 L48.1635488,8.07253732 Z" id="Fill-13" fill="#FEFEFE"></path>
                <path d="M55.0006393,9.93420242 C55.0006393,9.18964231 54.6651985,8.69326891 54.1057423,8.69326891 C53.5466743,8.69326891 53.2112336,9.18964231 53.2112336,9.93420242 C53.2112336,10.6791409 53.5466743,11.1694609 54.1057423,11.1694609 C54.6651985,11.1694609 55.0006393,10.6791409 55.0006393,9.93420242 M52.2914891,9.93420242 C52.2914891,8.69629557 53.1553268,7.98162381 54.1057423,7.98162381 C55.0565461,7.98162381 55.9199954,8.69629557 55.9199954,9.93420242 C55.9199954,11.1664343 55.0565461,11.881106 54.1057423,11.881106 C53.1553268,11.881106 52.2914891,11.1664343 52.2914891,9.93420242" id="Fill-14" fill="#FEFEFE"></path>
                <path d="M56.8057299,8.07246165 L57.5391184,8.07246165 L57.6070606,8.57488839 L57.6322963,8.57488839 C57.973949,8.25103501 58.3625789,7.98166164 58.8843756,7.98166164 C59.701236,7.98166164 60.0584183,8.52078672 60.0584183,9.45905352 L60.0584183,11.7899655 L59.1635214,11.7899655 L59.1635214,9.5710402 C59.1635214,8.95965345 58.9833772,8.72924841 58.5706764,8.72924841 C58.2352356,8.72924841 58.0143261,8.88966177 57.7006269,9.19270681 L57.7006269,11.7899655 L56.8057299,11.7899655 L56.8057299,8.07246165 Z" id="Fill-15" fill="#FEFEFE"></path>
                <path d="M61.1541527,11.7901547 L62.0490496,11.7901547 L62.0490496,8.07265082 L61.1541527,8.07265082 L61.1541527,11.7901547 Z M61.0516569,6.92819232 C61.0516569,6.63460561 61.288096,6.43446725 61.6049012,6.43446725 C61.9213181,6.43446725 62.1577573,6.63460561 62.1577573,6.92819232 C62.1577573,7.2157257 61.9213181,7.42153906 61.6049012,7.42153906 C61.288096,7.42153906 61.0516569,7.2157257 61.0516569,6.92819232 L61.0516569,6.92819232 Z" id="Fill-16" fill="#FEFEFE"></path>
                <path d="M65.7455371,9.88286258 C65.7455371,9.1409508 65.4966742,8.70208408 64.9158647,8.70208408 C64.6394366,8.70208408 64.3723264,8.83828409 64.0834746,9.11976414 L64.0834746,10.8517744 C64.3505849,11.0783961 64.6270129,11.1604944 64.8475342,11.1604944 C65.3572954,11.1604944 65.7455371,10.7246544 65.7455371,9.88286258 M63.9965085,11.3996011 L63.971661,11.3996011 L63.8936245,11.7900412 L63.1885777,11.7900412 L63.1885777,6.44381209 L64.0834746,6.44381209 L64.0834746,7.82699895 L64.0586272,8.44481737 C64.3773735,8.17241733 64.7683329,7.98173731 65.1596804,7.98173731 C66.1135901,7.98173731 66.6648933,8.72629741 66.6648933,9.86924258 C66.6648933,11.1453611 65.8853041,11.8808412 65.0373843,11.8808412 C64.6891316,11.8808412 64.3164196,11.7083212 63.9965085,11.3996011" id="Fill-17" fill="#FEFEFE"></path>
                <path d="M67.513473,10.8335009 L67.513473,6.44369859 L68.40837,6.44369859 L68.40837,10.8789009 C68.40837,11.0934159 68.5077598,11.1694609 68.6009378,11.1694609 C68.6413149,11.1694609 68.6723743,11.1694609 68.7407048,11.1543276 L68.8525184,11.805061 C68.7438107,11.8478127 68.5947259,11.881106 68.3804166,11.881106 C67.7468062,11.881106 67.513473,11.4812076 67.513473,10.8335009" id="Fill-18" fill="#FEFEFE"></path>
                <path d="M71.9259168,9.5769422 C71.9259168,9.00490212 71.6650184,8.65645707 71.1432217,8.65645707 C70.6990732,8.65645707 70.3073374,8.98068878 70.2300773,9.5769422 L71.9259168,9.5769422 Z M69.3662397,9.93408892 C69.3662397,8.72644875 70.2265832,7.98151031 71.1245861,7.98151031 C72.1561441,7.98151031 72.6996824,8.70828874 72.6996824,9.74643556 C72.6996824,9.91328058 72.6806585,10.0797473 72.6608582,10.170169 L70.2390069,10.170169 C70.3139375,10.8303607 70.7487682,11.2060458 71.3637429,11.2060458 C71.6902541,11.2060458 71.9693999,11.1057874 72.2493221,10.9362941 L72.5537035,11.4780675 C72.1903094,11.7171742 71.730243,11.8809925 71.2457175,11.8809925 C70.1924179,11.8809925 69.3662397,11.1606458 69.3662397,9.93408892 L69.3662397,9.93408892 Z" id="Fill-19" fill="#FEFEFE"></path>
                <path d="M77.415537,9.5769422 C77.415537,9.00490212 77.1546387,8.65645707 76.6328419,8.65645707 C76.1886935,8.65645707 75.7969577,8.98068878 75.7196976,9.5769422 L77.415537,9.5769422 Z M74.8558599,9.93408892 C74.8558599,8.72644875 75.7162034,7.98151031 76.6142063,7.98151031 C77.6457643,7.98151031 78.1893026,8.70828874 78.1893026,9.74643556 C78.1893026,9.91328058 78.170667,10.0797473 78.1504784,10.170169 L75.7286271,10.170169 C75.8035578,10.8303607 76.2383884,11.2060458 76.8533631,11.2060458 C77.1798744,11.2060458 77.4590201,11.1057874 77.7389423,10.9362941 L78.0433238,11.4780675 C77.6799296,11.7171742 77.2198632,11.8809925 76.7353377,11.8809925 C75.6820381,11.8809925 74.8558599,11.1606458 74.8558599,9.93408892 L74.8558599,9.93408892 Z" id="Fill-20" fill="#FEFEFE"></path>
                <path d="M79.0439389,8.07246165 L79.7773274,8.07246165 L79.8452696,8.57488839 L79.8705054,8.57488839 C80.212158,8.25103501 80.6007879,7.98166164 81.1225846,7.98166164 C81.939445,7.98166164 82.2966273,8.52078672 82.2966273,9.45905352 L82.2966273,11.7899655 L81.4017304,11.7899655 L81.4017304,9.5710402 C81.4017304,8.95965345 81.2215862,8.72924841 80.8088854,8.72924841 C80.4734446,8.72924841 80.2525351,8.88966177 79.9388359,9.19270681 L79.9388359,11.7899655 L79.0439389,11.7899655 L79.0439389,8.07246165 Z" id="Fill-21" fill="#FEFEFE"></path>
            </g>
        </g>
    </g>
</svg>